<svg xmlns="http://www.w3.org/2000/svg" width="100%" height="100%" viewBox="0 0 300 300"><circle fill="#4A7DED" cx="150" cy="150" r="148"></circle><path fill="#598DEA" d="M47.973 257.212c-59.211-56.35-61.532-150.029-5.184-209.24s150.028-61.531 209.24-5.184"></path><path opacity="0.5" fill="#335FC1" d="M212.071 74.781H88.728v17.053l26.603 26.655h-40.51v17.053l35.9 35.972c-3.924 10.104-10.856 18.815-20.834 26.114-5.74 4.084-12.474 7.673-20.198 10.761l11.92 15.563 73.793 73.939c75.732-2.72 136.958-62.331 142.222-137.388l-85.553-85.722z"></path><circle fill="none" cx="150" cy="150" r="148"></circle><circle fill="none" cx="150" cy="150" r="148"></circle><path fill="#FFF" d="M132.271 135.542v14.569c-.111 6.403-1.05 13.137-2.814 20.199-2.649 8.389-6.514 16.722-11.589 24.999-8.832 11.48-20.917 21.026-36.258 28.643l-11.92-15.563c7.725-3.088 14.458-6.677 20.198-10.761 16.445-12.029 24.669-27.869 24.669-47.517v-14.569H74.821v-17.053h149.17v17.053h-45.364v61.424c0 2.429.551 4.361 1.656 5.794 1.324 1.325 3.366 2.044 6.125 2.152h16.225c1.764 0 3.531-.662 5.298-1.986 1.102-.662 2.041-9.438 2.815-26.324l17.549 2.979c-1.436 21.635-3.203 33.609-5.298 35.927-4.085 4.745-8.278 7.119-12.583 7.119h-36.589c-3.642-.222-6.788-1.712-9.437-4.47-2.318-2.649-3.477-5.521-3.477-8.609v-74.006h-28.64zm79.8-60.761v17.053H88.728V74.781h123.343z"></path></svg>
