<svg xmlns="http://www.w3.org/2000/svg" width="100%" height="100%" viewBox="0 0 300 300"><circle fill="#2D4692" cx="150" cy="150" r="148"></circle><g fill="#FFF"><path d="M146.438 105.514h6.284v14.713h-6.284z"></path><path d="M248.167 142.665l-42.936-76.862c-2.255-4.036-7.787-7.34-12.295-7.34h-85.873c-4.508 0-10.039 3.304-12.293 7.34l-42.937 76.862c-2.255 4.033-2.255 10.637 0 14.672l42.937 76.862c2.254 4.034 7.785 7.338 12.293 7.338h85.873c4.508 0 10.04-3.304 12.295-7.338l42.936-76.862c2.253-4.035 2.253-10.639 0-14.672z"></path></g><path fill="#2D4692" d="M204.441 137.465c0-5.309-1.426-9.486-4.441-12.621-3.101-3.221-6.453-4.876-10.056-4.876h-27.899v-14.452h38.903s3.184-1.132 3.184-6.18-3.184-5.921-3.184-5.921H98.659s-3.186.873-3.186 5.921 3.186 6.18 3.186 6.18h39.424v14.452H110.18c-3.601 0-6.952 1.655-10.054 4.876-2.934 3.135-4.44 7.313-4.44 12.621l-.083 43.789s-.083 8.881 5.529 13.667c4.775 4.094 11.981 3.396 11.981 3.396h11.477c1.341 0 4.024-2.089 4.024-5.659 0-6.007-4.693-6.615-4.693-6.615h-9.885c-7.042 0-6.788-6.703-6.788-6.703v-39.349c0-5.224 2.683-7.835 7.876-7.835h22.958v70.34s.334 4.09 4.442 4.09h4.437v-74.43h6.201v74.43h4.44c4.106 0 4.441-4.09 4.441-4.09v-70.34H185c5.28 0 7.878 2.611 7.878 7.835v39.349s.249 6.703-6.788 6.703h-9.887s-4.692.608-4.692 6.615c0 3.57 2.681 5.659 4.02 5.659h11.479s7.122.697 11.983-3.396c5.612-4.786 5.529-13.667 5.529-13.667l-.081-43.789zm-51.194-17.236h-6.284v-14.713h6.284v14.713z"></path></svg>
